<svg version="1.1" id="Layer_1" xmlns="http://www.w3.org/2000/svg" xmlns:xlink="http://www.w3.org/1999/xlink" x="0px" y="0px"
	 width="100%" viewBox="0 0 1240 484" enable-background="new 0 0 1240 484" xml:space="preserve">
<path fill="#FFFFFF" opacity="1.000000" stroke="none" 
	d="
M933.000000,485.000000 
	C623.500061,485.000000 314.500061,484.992065 5.500141,485.093140 
	C1.751283,485.094360 0.903472,484.249756 0.906062,480.500061 
	C1.015454,322.166809 1.015449,163.833466 0.906114,5.500233 
	C0.903525,1.751230 1.750351,0.906108 5.499853,0.907012 
	C415.833099,1.005988 826.166382,1.005980 1236.499634,0.907105 
	C1240.247803,0.906202 1241.096558,1.749467 1241.093994,5.499747 
	C1240.984497,163.832977 1240.984619,322.166321 1241.093872,480.499573 
	C1241.096436,484.248108 1240.250854,485.099243 1236.500244,485.094849 
	C1135.500244,484.975861 1034.500122,485.000000 933.000000,485.000000 
z"/>
<path fill="#1A1516" opacity="1.000000" stroke="none" 
	d="
M776.541626,40.495251 
	C825.183472,60.211418 873.483093,79.756104 921.822205,99.202606 
	C924.399780,100.239525 925.245361,101.546822 925.196777,104.303482 
	C925.020447,114.298004 925.075806,124.298058 925.169861,134.294846 
	C925.192444,136.686676 924.761047,138.089035 922.177063,139.130081 
	C866.466553,161.575317 810.807251,184.147247 755.134521,206.686172 
	C755.001221,206.740128 754.816895,206.668198 754.026611,206.603500 
	C754.026611,197.456818 753.926331,188.245422 754.064453,179.037598 
	C754.146362,173.575333 751.899353,166.875809 754.951721,163.001495 
	C757.783020,159.407776 764.363647,158.754425 769.306274,156.839798 
	C800.104492,144.909363 830.906677,132.988937 861.706177,121.061798 
	C862.776428,120.647354 863.832825,120.197304 865.634460,119.462608 
	C850.374390,113.475441 835.775452,107.735443 821.167297,102.019180 
	C799.995728,93.734612 778.844543,85.396194 757.609558,77.277145 
	C754.770630,76.191673 753.921143,74.863937 753.955872,71.929344 
	C754.113037,58.656956 754.024597,45.381660 754.024597,31.450550 
	C761.795837,34.551826 769.001770,37.427517 776.541626,40.495251 
z"/>
<path fill="#1A1516" opacity="1.000000" stroke="none" 
	d="
M507.139343,144.936737 
	C521.282959,150.371933 535.001465,155.838638 548.864990,160.908997 
	C552.309692,162.168854 553.223816,163.856720 553.169617,167.326904 
	C552.966858,180.309494 553.088440,193.297180 553.088440,207.118561 
	C549.590149,205.683395 546.510803,204.405212 543.420288,203.154404 
	C491.293427,182.057312 439.182953,160.919342 387.000427,139.960770 
	C383.195618,138.432602 381.764648,136.641556 381.924744,132.469849 
	C382.282257,123.155823 382.134705,113.817047 381.976959,104.492012 
	C381.931793,101.820946 382.574493,100.366829 385.233978,99.294632 
	C440.155579,77.152695 495.037018,54.911091 549.919983,32.673454 
	C550.848572,32.297218 551.704590,31.758976 553.090698,32.241028 
	C553.090698,45.917366 553.019592,59.713390 553.148804,73.507538 
	C553.175598,76.371819 551.234253,76.550713 549.430298,77.256416 
	C514.827454,90.793030 480.228455,104.339523 445.629761,117.886795 
	C444.553314,118.308289 443.488708,118.760086 441.608643,119.529007 
	C463.768188,128.130676 485.268005,136.476242 507.139343,144.936737 
z"/>
<path fill="#2C9C13" opacity="1.000000" stroke="none" 
	d="
M669.380615,45.239830 
	C674.079773,32.546581 679.046387,20.083458 684.094177,7.653281 
	C684.654053,6.274566 685.641541,5.236850 687.497314,5.247301 
	C699.114990,5.312726 710.733154,5.280353 722.716492,5.280353 
	C718.738525,14.900867 714.990723,24.090769 711.142761,33.238522 
	C706.485962,44.309139 701.680481,55.317390 697.056030,66.401299 
	C691.362671,80.047256 685.824646,93.757950 680.155457,107.414062 
	C673.704468,122.953255 667.235168,138.485291 660.674866,153.978546 
	C655.730774,165.654877 650.476074,177.201340 645.636230,188.919846 
	C638.264648,206.768082 631.055176,224.684692 623.969482,242.648239 
	C622.694519,245.880569 621.179443,247.211441 617.513000,247.113266 
	C606.716797,246.824203 595.907837,247.010132 584.286194,247.010132 
	C592.772278,226.699707 601.031067,206.933243 609.562134,186.923111 
	C612.094727,187.633179 611.693726,189.542999 611.512024,191.367538 
	C611.080078,195.703903 610.041626,199.893112 608.428528,203.939621 
	C607.602173,206.012741 607.092651,208.126099 608.320862,210.186996 
	C609.743958,212.575089 611.867554,214.358459 614.572388,214.776138 
	C617.446716,215.219986 618.493225,212.574020 619.563232,210.602554 
	C622.814270,204.612640 626.272522,198.865570 630.527405,193.430267 
	C634.374756,188.515518 635.261353,181.791443 637.433289,175.864288 
	C639.780151,169.459747 641.927002,163.114944 645.947998,157.383636 
	C649.581055,152.205170 650.895935,145.799469 652.723511,139.739059 
	C655.223450,131.449173 657.692810,123.184990 663.138611,116.131279 
	C665.936584,112.507088 666.159912,107.722870 667.500671,103.453384 
	C670.093933,95.195839 672.751526,87.151840 678.035095,79.926041 
	C682.234924,74.182335 683.056030,66.613831 685.416504,59.869366 
	C688.378723,51.405323 690.443298,42.589226 695.106323,34.788437 
	C697.118774,31.421822 695.912659,27.984928 695.490051,24.563894 
	C695.385498,23.717535 694.844910,23.109434 693.934998,22.813066 
	C690.685364,21.754627 681.680603,25.670986 680.282043,28.870243 
	C678.548157,32.836369 677.271667,37.006931 675.303772,40.858192 
	C674.160034,43.096466 673.261597,46.046429 669.380615,45.239830 
z"/>
<path fill="#2E9F15" opacity="1.000000" stroke="none" 
	d="
M668.849243,45.267334 
	C672.585327,45.133007 673.221741,42.112617 674.449219,39.925396 
	C675.495178,38.061745 676.540283,36.005150 676.812317,33.932411 
	C678.109131,24.049582 685.491760,22.276018 693.398987,21.123381 
	C694.668396,20.938349 696.740784,20.698524 696.676697,22.331318 
	C696.528687,26.103798 699.207092,29.900570 697.156067,33.503185 
	C690.097046,45.902130 686.967651,59.738476 682.638306,73.103577 
	C680.824036,78.704308 676.895935,82.721771 674.409302,87.679230 
	C671.899353,92.683235 669.965088,98.063583 668.935974,103.641373 
	C667.459534,111.643410 662.527344,118.029289 659.303040,125.199730 
	C655.105957,134.533630 653.623413,145.205200 648.769165,154.098358 
	C641.954468,166.582916 638.889526,180.544434 632.340393,192.757080 
	C628.255493,200.374435 623.147400,207.964447 618.099426,215.300949 
	C616.862366,217.098862 615.214722,217.244659 613.302185,216.149933 
	C608.253601,213.260010 603.633972,209.894379 607.595642,202.239914 
	C609.872559,197.840500 610.933960,192.624481 609.985474,187.037018 
	C617.538818,168.026184 625.194092,149.352478 632.958923,130.724426 
	C644.802551,102.311249 656.721985,73.929657 668.849243,45.267334 
z"/>
<path fill="#1C1718" opacity="1.000000" stroke="none" 
	d="
M119.308548,332.702026 
	C118.136322,345.440948 116.951981,357.875732 116.162132,370.335510 
	C115.961319,373.503326 114.940086,374.428680 112.036911,374.037872 
	C110.891663,373.883667 109.708298,374.012604 108.542282,374.012604 
	C98.309593,374.012665 98.332512,374.014771 99.244789,364.048187 
	C101.157196,343.155243 103.136505,322.267517 104.842880,301.357605 
	C105.111282,298.068512 106.111382,297.266968 109.267448,297.250854 
	C123.585663,297.177765 123.585258,297.082245 128.636581,310.288940 
	C132.376465,320.066895 136.114990,329.845367 139.860947,339.621002 
	C139.978012,339.926544 140.170715,340.203064 140.666046,341.115570 
	C143.837082,332.907104 146.863388,325.132355 149.843231,317.339844 
	C151.979919,311.752289 154.141006,306.171173 156.115738,300.525818 
	C156.949173,298.143127 158.174408,296.936951 160.816772,297.297272 
	C162.288361,297.497986 163.810135,297.330475 165.309296,297.329102 
	C176.018539,297.319183 175.955627,297.324554 176.848160,307.782135 
	C178.632309,328.686646 180.413635,349.592163 182.409592,370.476898 
	C182.698029,373.494904 181.956192,374.022644 179.150543,374.079254 
	C165.109238,374.362549 165.146042,374.438965 164.161865,360.462219 
	C163.443466,350.259827 162.616821,340.065063 160.978241,329.703278 
	C158.365555,337.142303 155.730789,344.573669 153.147018,352.022736 
	C151.023315,358.145325 148.684296,364.213257 146.972412,370.451294 
	C145.927277,374.259705 143.371902,373.647522 140.800995,373.631927 
	C138.107361,373.615601 135.408722,374.378662 134.128815,370.423798 
	C130.035873,357.776825 125.531082,345.263123 121.010323,332.362793 
	C120.184204,331.468079 119.772835,331.788269 119.308548,332.702026 
z"/>
<path fill="#1C1718" opacity="1.000000" stroke="none" 
	d="
M334.727722,373.994781 
	C332.229767,373.429993 331.852509,371.399872 330.913635,369.937897 
	C322.640503,357.054993 314.447571,344.120605 306.222504,331.206818 
	C305.452484,329.997864 304.624786,328.825714 303.076447,326.526550 
	C303.076447,341.372711 302.865906,354.939789 303.194183,368.493805 
	C303.304443,373.047455 302.095337,374.261719 297.552521,374.129700 
	C285.802856,373.788239 285.806244,374.018890 285.811066,362.219330 
	C285.819244,342.055359 285.890839,321.890808 285.738190,301.727997 
	C285.712341,298.314148 286.660400,297.621796 290.085083,297.147369 
	C299.710022,295.813904 305.465363,299.326202 310.121643,307.983490 
	C316.686462,320.189270 324.801117,331.561401 333.450256,343.081543 
	C333.450256,340.539398 333.453369,337.997253 333.449707,335.455109 
	C333.433502,324.123322 333.529572,312.789459 333.326294,301.460999 
	C333.267456,298.181549 334.197205,297.249084 337.519623,297.234894 
	C350.889404,297.177826 350.879517,297.055664 350.877777,310.161713 
	C350.875122,329.992401 350.800232,349.823822 350.975555,369.653015 
	C351.005859,373.082947 350.268494,374.405823 346.647675,374.087921 
	C342.844055,373.753967 338.988495,374.011414 334.727722,373.994781 
z"/>
<path fill="#2D9B14" opacity="1.000000" stroke="none" 
	d="
M706.188293,319.321960 
	C714.618286,302.469849 729.138123,294.187500 746.375732,296.123657 
	C761.224060,297.791443 774.191833,309.331848 778.316956,324.549164 
	C782.868469,341.339447 776.928040,358.648163 763.272278,368.385559 
	C750.926758,377.188538 732.712280,377.428528 720.036255,368.955078 
	C704.653015,358.672028 699.027283,338.859009 706.188293,319.321960 
z"/>
<path fill="#1B1617" opacity="1.000000" stroke="none" 
	d="
M551.593994,368.634033 
	C536.748535,377.430206 522.095947,377.660553 508.040375,368.195038 
	C494.728729,359.230499 489.174683,342.434753 493.016754,325.616119 
	C496.375824,310.911896 508.786133,299.197998 523.875061,296.489502 
	C547.564575,292.237152 568.907288,311.389191 568.356750,336.353973 
	C568.061646,349.733948 562.646973,360.436523 551.593994,368.634033 
z"/>
<path fill="#2C9B14" opacity="1.000000" stroke="none" 
	d="
M1227.709717,348.615540 
	C1222.674316,366.358673 1206.046265,376.850586 1186.833984,374.897217 
	C1170.154663,373.201416 1155.952637,358.957855 1154.000244,342.319458 
	C1152.051758,325.716034 1157.004639,311.991669 1170.888062,302.329132 
	C1191.144165,288.231445 1217.620605,297.181549 1227.843384,321.627930 
	C1227.035767,330.722717 1227.549683,339.473236 1227.709717,348.615540 
z"/>
<path fill="#2E9D16" opacity="1.000000" stroke="none" 
	d="
M987.365356,356.266968 
	C986.929749,337.342926 986.866943,318.685272 986.738525,300.028046 
	C986.723633,297.869934 987.536316,297.093536 989.676941,297.155029 
	C993.673340,297.269897 997.681885,297.324005 1001.673035,297.138763 
	C1004.237488,297.019684 1005.056641,298.743652 1006.128662,300.433746 
	C1015.117065,314.604645 1024.127197,328.761719 1033.151123,342.955078 
	C1034.986328,342.025513 1034.197388,340.511780 1034.202881,339.370636 
	C1034.264038,326.705017 1034.331543,314.037628 1034.158447,301.373932 
	C1034.113892,298.123413 1035.018188,297.124084 1038.356934,297.097168 
	C1051.964478,296.987488 1051.958496,296.868866 1051.956543,310.321991 
	C1051.953857,329.987549 1051.876709,349.653748 1052.038452,369.317993 
	C1052.067139,372.808350 1051.396362,373.727051 1047.574097,374.232361 
	C1037.747437,375.531342 1031.910278,372.090179 1027.179199,363.212860 
	C1020.644470,350.951385 1012.456604,339.570862 1004.061218,327.977051 
	C1004.061218,337.678253 1004.061218,347.379425 1003.974365,357.542480 
	C1001.691345,359.899780 999.199707,359.298706 996.835144,358.633667 
	C993.823853,357.786774 990.603943,357.884003 987.365356,356.266968 
z"/>
<path fill="#2D9B15" opacity="1.000000" stroke="none" 
	d="
M848.313354,369.390106 
	C836.505859,376.770569 824.341309,376.896118 812.193542,371.962433 
	C802.175720,367.893890 798.599548,358.957184 798.321045,348.985352 
	C797.865295,332.665039 798.171570,316.323975 798.095520,299.991913 
	C798.086365,298.024994 798.443298,297.122162 800.764282,296.916901 
	C815.904358,295.578217 815.889160,295.510712 815.895325,310.503937 
	C815.900085,322.003143 815.758423,333.506073 816.003906,345.000488 
	C816.220459,355.137817 822.610046,359.679291 832.400513,357.075378 
	C837.366760,355.754486 839.923889,352.078522 840.004883,345.073456 
	C840.172424,330.576111 840.228333,316.073822 840.015320,301.578217 
	C839.960449,297.847504 840.878052,296.507568 844.675720,296.918091 
	C847.805664,297.256470 851.022705,297.216522 854.161987,296.924103 
	C857.429382,296.619690 857.979858,297.982330 857.952942,300.913727 
	C857.812134,316.245087 858.018799,331.580200 857.817688,346.910248 
	C857.705688,355.445801 855.749939,363.437897 848.313354,369.390106 
z"/>
<path fill="#1C1818" opacity="1.000000" stroke="none" 
	d="
M61.606632,309.337830 
	C69.824966,329.892761 77.801598,350.128662 85.980072,370.282684 
	C87.402435,373.787811 87.042496,374.956665 83.048691,374.682648 
	C78.575615,374.375793 73.362671,375.938965 69.774025,374.119537 
	C66.059738,372.236481 66.070496,366.353546 64.529541,362.209930 
	C63.624527,359.776398 62.523952,358.887512 59.919224,358.947815 
	C52.433681,359.121063 44.938976,359.119354 37.453442,358.946014 
	C35.006870,358.889343 34.015682,359.828552 33.239559,361.989227 
	C31.735321,366.176849 31.632263,372.134155 28.139147,374.006775 
	C24.494619,375.960541 19.045006,374.395203 14.405453,374.693451 
	C10.776590,374.926758 10.231345,374.030334 11.613091,370.614563 
	C21.013910,347.375275 30.263950,324.074615 39.442940,300.746613 
	C40.457973,298.166931 41.775051,297.336121 44.554672,297.327301 
	C56.873768,297.288330 56.873440,297.185150 61.606632,309.337830 
z"/>
<path fill="#1C1718" opacity="1.000000" stroke="none" 
	d="
M211.713928,328.627991 
	C215.482529,319.172394 219.182724,310.103241 222.664078,300.950836 
	C223.601791,298.485657 224.632065,297.326843 227.569077,297.315277 
	C240.057343,297.265991 240.048523,297.144318 244.662628,308.761810 
	C252.812057,329.280579 260.891876,349.827728 269.206177,370.279541 
	C270.637329,373.799927 270.366364,374.957520 266.358582,374.679138 
	C261.735443,374.358032 256.054321,376.016937 252.748718,373.868256 
	C249.708008,371.891754 249.023285,366.062531 247.665314,361.814026 
	C246.893295,359.398712 245.557266,358.936462 243.309738,358.968475 
	C235.823013,359.075134 228.332336,359.092010 220.846420,358.959625 
	C218.507538,358.918304 217.386246,359.575867 216.542526,361.908783 
	C215.029480,366.092468 214.933578,372.045502 211.425491,373.937592 
	C207.795761,375.895355 202.365631,374.386383 197.739700,374.667847 
	C194.220627,374.882019 193.403946,374.128937 194.875519,370.578217 
	C200.594894,356.778168 206.025360,342.858368 211.713928,328.627991 
z"/>
<path fill="#2E9C15" opacity="1.000000" stroke="none" 
	d="
M1075.376465,358.288269 
	C1074.928467,338.693787 1074.864014,319.387146 1074.739746,300.080872 
	C1074.726318,297.981598 1075.428711,296.933014 1077.617554,297.185120 
	C1077.781860,297.204010 1077.950684,297.193329 1078.116821,297.184692 
	C1092.089966,296.460815 1092.089844,296.460724 1092.083130,310.388733 
	C1092.080811,315.217346 1092.181274,320.049133 1092.032471,324.873230 
	C1091.960815,327.197540 1092.608521,328.109192 1095.076904,328.046265 
	C1101.067139,327.893616 1107.067383,327.879974 1113.056641,328.051270 
	C1115.664062,328.125885 1116.496460,327.316437 1116.442017,324.690643 
	C1116.283691,317.034607 1116.515869,309.369537 1116.306641,301.715912 
	C1116.215576,298.382141 1116.995972,297.089539 1120.673584,297.089142 
	C1133.996094,297.087708 1133.991455,296.942413 1133.990479,310.040070 
	C1133.988770,329.854095 1133.884644,349.669312 1134.093750,369.481140 
	C1134.133423,373.237244 1133.192261,374.546265 1129.443481,374.064362 
	C1125.226440,373.522247 1119.552002,375.902374 1117.111084,373.010529 
	C1115.026245,370.540466 1116.430908,365.083466 1116.383179,360.946625 
	C1116.329346,356.285187 1116.289673,351.620117 1116.417236,346.961395 
	C1116.483521,344.537415 1115.928711,343.283325 1113.137085,343.360077 
	C1107.147461,343.524750 1101.148438,343.491608 1095.156738,343.371124 
	C1092.730225,343.322357 1091.958130,344.249725 1092.043091,346.594818 
	C1092.181519,350.419067 1092.068115,354.252441 1091.974854,358.542847 
	C1086.430908,361.719757 1081.074097,360.628723 1075.376465,358.288269 
z"/>
<path fill="#2B9A13" opacity="1.000000" stroke="none" 
	d="
M629.414551,358.529297 
	C620.157898,345.597626 618.824890,332.166138 626.010803,318.390869 
	C633.376465,304.271118 645.557617,297.123718 661.322205,296.029144 
	C669.091614,295.489716 676.503479,297.118988 683.607849,300.265686 
	C686.792114,301.676086 688.343933,303.370026 686.019409,306.966980 
	C684.051819,310.011505 683.409241,314.376953 680.813110,316.424286 
	C678.032227,318.617310 674.811218,314.702789 671.591553,313.979004 
	C654.409851,310.116577 639.673645,321.167114 640.733215,337.348694 
	C641.595032,350.510071 654.730896,360.124908 668.650085,357.711212 
	C670.763184,357.344818 673.087891,357.056488 674.839478,355.967621 
	C679.515259,353.061035 682.205078,354.216644 683.547363,359.371399 
	C683.670654,359.844879 683.945312,360.281342 684.166199,360.726776 
	C688.405823,369.274506 688.396118,369.836609 679.017029,372.756012 
	C661.249451,378.286499 642.729309,375.213715 629.414551,358.529297 
z"/>
<path fill="#1B1617" opacity="1.000000" stroke="none" 
	d="
M415.709473,357.946228 
	C419.311737,357.616577 422.653137,357.199554 425.191986,355.423920 
	C429.055603,352.721710 430.258514,354.845123 431.468872,357.925293 
	C431.831604,358.848419 432.376068,359.699036 432.819672,360.591644 
	C437.097351,369.199493 437.085083,369.228912 428.170837,372.563751 
	C402.428345,382.194092 374.031860,366.090332 370.665771,339.952362 
	C367.889618,318.395477 386.217560,297.319794 408.843964,296.084717 
	C417.466888,295.614014 425.726624,297.015015 433.481293,300.991241 
	C435.768860,302.164185 436.894409,303.562988 435.063873,305.984680 
	C434.867828,306.244019 434.783142,306.585815 434.635254,306.883606 
	C433.009888,310.156769 432.152069,314.447693 429.542358,316.419403 
	C426.840668,318.460663 423.501099,314.619934 420.230499,313.906525 
	C409.035614,311.464539 397.920441,315.374390 392.569641,324.017487 
	C384.736847,336.669769 391.447723,353.307770 405.880188,356.965424 
	C408.956421,357.745026 412.089935,358.146606 415.709473,357.946228 
z"/>
<path fill="#299810" opacity="1.000000" stroke="none" 
	d="
M901.980957,374.009277 
	C892.757812,374.009277 892.760437,374.009277 892.765625,365.157715 
	C892.774963,349.349609 892.624084,333.538849 892.894958,317.735260 
	C892.965393,313.626007 891.618469,312.438538 887.858582,312.966553 
	C886.553101,313.149872 885.195068,313.071411 883.870056,312.980347 
	C880.926392,312.778015 876.031677,314.183105 875.422119,312.333710 
	C874.087585,308.284424 874.799194,303.537445 874.821411,299.076141 
	C874.830078,297.347260 876.378479,297.652710 877.468384,297.651154 
	C893.442871,297.628387 909.417542,297.668518 925.391663,297.593475 
	C927.645874,297.582855 928.062012,298.490662 928.194824,300.536560 
	C929.003540,313.002106 929.057312,312.998627 916.534668,312.998199 
	C910.071411,312.997986 910.069763,312.997986 910.071411,319.637909 
	C910.075256,335.279602 910.080994,350.921295 910.085815,366.562988 
	C910.088135,374.009125 910.087952,374.009125 901.980957,374.009277 
z"/>
<path fill="#2F9C17" opacity="1.000000" stroke="none" 
	d="
M950.225891,374.022430 
	C947.335083,374.328278 946.196411,373.634094 946.208984,370.826691 
	C946.313660,347.517883 946.308411,324.208313 946.231506,300.899353 
	C946.222473,298.159271 946.975647,297.197998 949.875122,297.101746 
	C963.979309,296.633423 963.972839,296.542847 963.972839,310.778473 
	C963.972839,330.424835 963.885742,350.072052 964.068176,369.716766 
	C964.100708,373.222321 963.216614,374.451996 959.682129,374.085144 
	C956.717224,373.777344 953.694885,374.022247 950.225891,374.022430 
z"/>
<path fill="#191415" opacity="1.000000" stroke="none" 
	d="
M472.316223,355.933899 
	C472.320892,358.085968 472.404144,359.752747 472.312622,361.409912 
	C472.085144,365.527313 474.131378,371.950897 471.609833,373.247314 
	C467.642029,375.287384 461.923401,373.884033 456.948334,374.021362 
	C454.907776,374.077667 455.007263,372.790131 455.007843,371.408203 
	C455.017975,347.635742 455.039886,323.863190 454.980133,300.090881 
	C454.974548,297.873169 455.808411,297.403870 457.886047,297.263306 
	C472.331512,296.286041 472.319763,296.235687 472.311768,310.559113 
	C472.303436,325.520813 472.313324,340.482544 472.316223,355.933899 
z"/>
<path fill="#4C4D4D" opacity="1.000000" stroke="none" 
	d="
M441.559631,439.337982 
	C443.114502,441.204285 444.005402,442.964142 444.120941,445.039337 
	C444.621277,454.023560 444.810303,463.024506 444.052917,471.986847 
	C443.584961,477.523895 440.459259,479.861023 434.563477,480.020233 
	C424.555176,480.290497 424.561127,480.290527 424.567871,470.377014 
	C424.574524,460.549500 424.666992,450.720337 424.505463,440.895477 
	C424.457489,437.975983 425.039154,436.536926 428.302704,436.934448 
	C432.662323,437.465546 437.369110,435.777374 441.559631,439.337982 
z"/>
<path fill="#4F5050" opacity="1.000000" stroke="none" 
	d="
M659.758667,448.596985 
	C660.312683,440.108978 662.993652,437.010925 669.440247,436.972260 
	C675.189758,436.937775 678.667358,439.677124 679.140076,445.437622 
	C679.848267,454.066650 679.848633,462.748535 679.163147,471.378937 
	C678.685913,477.387543 675.130066,480.164520 669.121094,480.019043 
	C663.546265,479.884125 660.187439,476.852264 659.949951,471.011841 
	C659.652466,463.696686 659.799866,456.363403 659.758667,448.596985 
z"/>
<path fill="#494A4A" opacity="1.000000" stroke="none" 
	d="
M805.994141,475.810638 
	C806.039612,478.279724 806.429626,480.292419 803.157776,480.079926 
	C800.319275,479.895569 801.077454,478.003601 801.072083,476.533081 
	C801.027710,464.399963 801.095581,452.266296 801.008057,440.133667 
	C800.991638,437.859619 801.519653,436.625305 804.018127,436.971527 
	C804.507263,437.039337 805.016235,436.949463 805.512268,436.984863 
	C810.297302,437.326263 816.419861,435.220581 818.773499,441.099121 
	C821.096497,446.901276 822.072937,453.365723 816.828918,458.705963 
	C816.384033,459.158997 815.714539,459.499756 816.580383,460.111206 
	C821.617432,463.668243 819.919067,469.037720 820.286621,473.848785 
	C820.362488,474.841858 820.424988,475.840485 820.407043,476.834991 
	C820.384827,478.065948 821.849731,479.846649 819.028015,480.055237 
	C816.740295,480.224365 815.506165,479.393799 815.403870,477.152191 
	C815.260132,474.001099 815.343262,470.838776 815.168457,467.690186 
	C814.941162,463.595032 811.685547,461.346558 807.654541,461.967010 
	C805.494995,462.299408 806.033630,463.682220 806.013123,464.864380 
	C805.952820,468.353729 805.993103,471.844818 805.994141,475.810638 
z"/>
<path fill="#4C4D4D" opacity="1.000000" stroke="none" 
	d="
M529.969238,480.028015 
	C526.188538,480.840027 525.730286,478.494385 525.300903,476.134918 
	C523.160767,464.374268 520.983582,452.619904 518.952454,440.840424 
	C518.743103,439.626160 516.652832,437.604065 519.786377,436.993622 
	C522.212219,436.520996 523.400208,437.527069 523.818481,440.001434 
	C525.118958,447.695160 526.567261,455.364014 527.975159,463.039459 
	C528.416565,465.445923 528.911255,467.842682 529.663452,471.682892 
	C532.215698,464.366730 532.617432,457.992462 533.955994,451.848206 
	C534.838562,447.796753 535.491272,443.689697 536.095032,439.585236 
	C536.403809,437.486115 537.433105,436.745148 539.457947,436.972778 
	C542.141357,437.274475 540.948975,439.218750 540.741272,440.375519 
	C538.540955,452.630310 536.153137,464.851654 533.989990,477.112762 
	C533.580139,479.435822 532.630920,480.325165 529.969238,480.028015 
z"/>
<path fill="#484949" opacity="1.000000" stroke="none" 
	d="
M722.744019,461.960815 
	C721.615051,462.417542 720.862488,462.831268 720.062744,462.966583 
	C712.881653,464.181732 712.879883,464.167389 712.881958,471.359680 
	C712.882568,473.525513 712.817688,475.693481 712.894104,477.856537 
	C712.959473,479.706024 711.947571,480.027588 710.396484,480.043427 
	C708.854431,480.059113 707.904175,479.799530 707.911255,477.918640 
	C707.960449,464.923767 707.942139,451.928650 707.937683,438.933594 
	C707.937317,437.801849 708.322083,437.261932 709.566650,436.957428 
	C715.469971,435.513275 723.031128,437.290253 725.220703,440.792999 
	C728.478149,446.003815 727.334473,457.319122 722.744019,461.960815 
z"/>
<path fill="#464747" opacity="1.000000" stroke="none" 
	d="
M754.937012,461.999146 
	C754.937012,454.499725 755.071838,447.496124 754.872070,440.502106 
	C754.789734,437.619110 755.734131,436.757721 758.522095,436.933044 
	C762.008179,437.152283 765.520935,436.910126 769.017212,437.022095 
	C770.451965,437.068054 772.572937,436.131683 772.645874,438.998749 
	C772.710999,441.558472 771.011047,441.304596 769.302124,441.486877 
	C766.250732,441.812286 761.660156,439.850555 760.485229,442.441376 
	C758.972778,445.776398 759.979736,450.250183 759.883423,454.233032 
	C759.841980,455.948456 760.983643,456.001068 762.227234,455.986511 
	C763.726929,455.968964 765.229919,455.928802 766.726196,456.003693 
	C768.220825,456.078491 770.181885,455.299042 770.119629,458.164856 
	C770.057983,461.003632 768.083435,460.219238 766.597107,460.280914 
	C759.870911,460.559906 759.869690,460.536377 759.871643,467.281006 
	C759.872070,468.780945 760.037720,470.302612 759.842041,471.776367 
	C759.423096,474.930573 760.762390,475.948212 763.776855,475.631287 
	C765.754822,475.423370 767.773438,475.630524 769.772278,475.584229 
	C771.478210,475.544769 772.665894,475.868164 772.660217,477.999664 
	C772.654846,480.011078 771.421631,480.018158 770.018311,480.015228 
	C765.851807,480.006592 761.680542,479.891937 757.520508,480.056366 
	C755.075562,480.152985 754.881592,478.898499 754.911194,476.997955 
	C754.986572,472.165985 754.936768,467.332001 754.937012,461.999146 
z"/>
<path fill="#464646" opacity="1.000000" stroke="none" 
	d="
M473.059448,468.976929 
	C473.059204,459.173370 473.164124,449.864990 472.995178,440.561584 
	C472.943878,437.736511 473.738800,436.758911 476.602631,436.932159 
	C480.410950,437.162567 484.243896,437.005890 488.066010,436.979187 
	C489.658691,436.968048 491.015137,436.970093 490.909515,439.251404 
	C490.824066,441.097015 489.839813,441.459320 488.344482,441.434082 
	C488.012329,441.428467 487.674103,441.402466 487.348389,441.451111 
	C484.323456,441.902740 479.735504,439.851898 478.574158,442.425140 
	C477.071075,445.755707 477.923859,450.220184 478.039734,454.188385 
	C478.133301,457.392426 480.828674,455.399139 482.246887,456.001862 
	C484.242950,456.850159 488.121582,454.030823 488.216553,457.917999 
	C488.323090,462.276093 484.195282,460.063995 482.097565,460.113220 
	C478.909821,460.187988 477.395111,460.972992 477.979523,464.318329 
	C478.007690,464.479584 477.979675,464.650146 477.983459,464.816254 
	C478.059357,468.127014 476.977722,472.200226 478.521301,474.545380 
	C480.246216,477.166046 484.617432,475.224823 487.811249,475.580505 
	C489.277374,475.743774 490.811615,475.412079 490.906952,477.733612 
	C491.020630,480.501709 489.147797,479.956573 487.583435,480.003235 
	C486.255127,480.042908 484.924683,480.011871 483.595184,480.011871 
	C473.053131,480.011871 473.053131,480.011871 473.059448,468.976929 
z"/>
<path fill="#464646" opacity="1.000000" stroke="none" 
	d="
M577.981384,480.011902 
	C569.053711,480.011261 569.055786,480.011261 569.057800,471.361267 
	C569.060181,461.222137 569.148682,451.081665 569.000793,440.944702 
	C568.959351,438.104523 569.383728,436.645264 572.721375,436.917389 
	C576.519043,437.227081 580.361511,436.971252 584.184265,436.997986 
	C585.467102,437.006958 586.860413,436.751373 586.903198,438.867035 
	C586.943787,440.881622 586.052795,441.550781 584.226990,441.437347 
	C584.061584,441.427094 583.893921,441.430969 583.728699,441.445190 
	C580.626648,441.711517 576.443604,440.033936 574.674072,442.157227 
	C572.612244,444.631104 574.371399,448.879272 573.937744,452.310699 
	C573.522034,455.600037 575.029419,455.948578 577.864441,456.150513 
	C580.013489,456.303528 584.123535,453.791626 584.200989,458.040558 
	C584.280151,462.376617 580.067505,460.086517 577.975220,460.098480 
	C574.563232,460.118073 573.507446,461.305664 573.969299,464.445831 
	C574.065002,465.096588 573.983154,465.773499 573.982971,466.438354 
	C573.980469,475.357147 573.981628,475.324005 582.940430,475.627319 
	C584.535828,475.681335 586.862732,474.739594 586.880432,477.865570 
	C586.898865,481.132538 584.461182,479.778442 582.948669,479.971130 
	C581.476624,480.158630 579.961975,480.011902 577.981384,480.011902 
z"/>
<path fill="#28970F" opacity="1.000000" stroke="none" 
	d="
M986.914917,356.460144 
	C992.547485,355.118683 997.571716,358.331635 1003.462891,358.002686 
	C1003.947998,358.828186 1004.052307,359.651459 1004.062805,360.475952 
	C1004.245972,374.936005 1004.247803,374.854187 989.678101,374.080719 
	C987.140320,373.946045 986.666748,373.056610 986.734436,370.836700 
	C986.875916,366.201202 986.802734,361.559143 986.914917,356.460144 
z"/>
<path fill="#464646" opacity="1.000000" stroke="none" 
	d="
M615.052673,440.263367 
	C614.761902,437.637573 615.663940,436.913940 617.848022,436.929199 
	C620.252563,436.946014 619.988220,438.420563 619.988037,439.920013 
	C619.986755,450.078247 620.281311,460.248871 619.854736,470.389191 
	C619.657898,475.067261 621.255432,476.260986 625.445679,475.673340 
	C627.076599,475.444611 628.770142,475.646057 630.434692,475.677063 
	C632.150024,475.709045 632.044373,476.958374 632.074524,478.142883 
	C632.104980,479.341431 631.633362,479.998413 630.364868,479.996002 
	C625.868774,479.987427 621.371216,480.065765 616.877136,479.972076 
	C614.045166,479.913055 615.108459,477.597900 615.099060,476.205658 
	C615.018860,464.382690 615.052795,452.558929 615.052673,440.263367 
z"/>
<path fill="#28970F" opacity="1.000000" stroke="none" 
	d="
M1074.912720,358.459442 
	C1080.330688,358.375519 1085.605835,359.473083 1091.433838,359.002197 
	C1091.945923,359.496063 1092.043579,359.987396 1092.055054,360.480774 
	C1092.393311,375.077423 1091.763428,375.596039 1077.183228,374.067505 
	C1075.152100,373.854553 1074.707642,373.138184 1074.748291,371.341492 
	C1074.842285,367.202148 1074.801270,363.059723 1074.912720,358.459442 
z"/>
<path fill="#3BAA23" opacity="1.000000" stroke="none" 
	d="
M1228.055664,348.675720 
	C1226.449951,348.779633 1226.010010,347.856049 1226.014893,346.540985 
	C1226.042969,338.955292 1226.031982,331.369263 1226.110718,323.784180 
	C1226.116333,323.254913 1226.739990,322.732117 1227.458740,322.096283 
	C1231.146851,330.720795 1230.804688,339.512512 1228.055664,348.675720 
z"/>
<path fill="#F2F2F2" opacity="1.000000" stroke="none" 
	d="
M119.389755,332.889130 
	C119.241440,331.897675 119.308662,330.798492 119.375885,329.699280 
	C120.426643,329.768616 120.516418,330.688293 120.849396,331.704010 
	C120.425339,332.278870 120.015312,332.530121 119.389755,332.889130 
z"/>
<path fill="#FDFEFD" opacity="1.000000" stroke="none" 
	d="
M736.891968,357.483398 
	C723.639282,353.619659 717.806519,337.936462 724.243286,324.128265 
	C727.730591,316.647339 733.520996,312.744751 741.984192,312.930115 
	C750.290222,313.112030 755.727966,317.315125 758.789795,324.707733 
	C761.779053,331.924957 761.688293,339.314056 758.723206,346.529755 
	C755.060242,355.443512 748.150513,358.927795 736.891968,357.483398 
z"/>
<path fill="#FCFCFC" opacity="1.000000" stroke="none" 
	d="
M535.108459,357.584961 
	C523.380920,358.845917 516.100830,355.208282 512.582825,346.658508 
	C508.238251,336.099976 511.004608,322.496460 518.732239,316.418549 
	C526.634155,310.203461 539.558960,312.130035 545.248779,320.371063 
	C551.167664,328.943817 551.209473,341.799652 545.423584,350.487244 
	C543.002991,354.121826 539.740173,356.452545 535.108459,357.584961 
z"/>
<path fill="#FDFEFD" opacity="1.000000" stroke="none" 
	d="
M1178.888428,353.147369 
	C1171.810913,345.538055 1171.290405,336.729828 1173.557739,327.709259 
	C1176.147461,317.406403 1183.403564,312.419830 1193.670654,312.976288 
	C1202.425293,313.450806 1209.456543,320.309204 1210.897583,330.124969 
	C1211.475586,334.062988 1211.573486,338.115021 1210.670898,342.038879 
	C1207.077637,357.662903 1192.225098,362.984863 1178.888428,353.147369 
z"/>
<path fill="#F2F2F2" opacity="1.000000" stroke="none" 
	d="
M52.166496,329.791168 
	C53.642071,333.728302 54.916904,337.334137 56.396038,340.854126 
	C57.271812,342.938202 57.077503,343.657043 54.546413,343.850708 
	C39.760666,344.982056 39.761032,345.045166 44.943672,331.299744 
	C46.083935,328.275513 47.269535,325.268402 48.826622,321.237701 
	C50.148266,324.592407 51.099968,327.008087 52.166496,329.791168 
z"/>
<path fill="#F2F2F2" opacity="1.000000" stroke="none" 
	d="
M230.090393,326.204407 
	C231.004883,324.824524 230.686050,323.185944 232.508163,322.202301 
	C234.982651,328.665009 237.437119,335.044861 239.864349,341.435059 
	C240.516647,343.152374 239.843704,343.929047 238.036591,343.790894 
	C237.706192,343.765594 237.371613,343.777649 237.039749,343.791473 
	C223.260864,344.365723 223.259903,344.365601 228.029755,331.676636 
	C228.671509,329.969421 229.329010,328.268097 230.090393,326.204407 
z"/>
<path fill="#F6F6F6" opacity="1.000000" stroke="none" 
	d="
M429.600769,453.019562 
	C429.601288,450.526459 429.400940,448.502502 429.659424,446.539001 
	C429.914398,444.602203 428.107788,441.435516 432.237122,441.380157 
	C435.775818,441.332764 439.264038,441.618927 439.345978,446.287140 
	C439.488892,454.433228 439.584778,462.590942 439.293335,470.729187 
	C439.153046,474.646973 435.071259,476.742188 431.226501,475.628052 
	C429.048431,474.996918 429.651520,473.347107 429.636993,471.991577 
	C429.571014,465.833344 429.603699,459.674103 429.600769,453.019562 
z"/>
<path fill="#FCFCFC" opacity="1.000000" stroke="none" 
	d="
M664.729980,457.012421 
	C664.767395,453.036072 664.744446,449.553772 664.860596,446.076111 
	C664.961975,443.043243 666.757019,441.564056 669.679321,441.583435 
	C672.396423,441.601440 674.153625,443.049866 674.182495,445.833069 
	C674.269836,454.282593 674.264893,462.734192 674.179382,471.183777 
	C674.151062,473.981598 672.381165,475.404846 669.672913,475.423920 
	C666.753296,475.444489 664.939819,473.980438 664.865845,470.933136 
	C664.757324,466.459778 664.769348,461.983521 664.729980,457.012421 
z"/>
<path fill="#F7F7F7" opacity="1.000000" stroke="none" 
	d="
M805.969971,445.300293 
	C805.889343,442.932617 805.794373,441.093323 808.653748,441.350830 
	C811.282532,441.587616 814.403137,441.199677 814.931030,444.731995 
	C815.366760,447.648071 815.365295,450.705505 815.035278,453.641602 
	C814.574341,457.742615 811.099609,457.558014 808.158264,457.612091 
	C804.659180,457.676422 806.191833,454.839264 806.032532,453.209839 
	C805.791809,450.747437 805.969788,448.244110 805.969971,445.300293 
z"/>
<path fill="#FAFAFA" opacity="1.000000" stroke="none" 
	d="
M712.859497,446.233490 
	C713.271912,444.130249 711.643860,441.441345 715.128357,441.390228 
	C718.044556,441.347443 721.213623,441.416504 721.712708,445.042480 
	C722.179871,448.435669 722.207703,452.009125 721.680481,455.386444 
	C721.128479,458.922852 717.974182,459.047699 715.032288,458.997070 
	C711.432373,458.935150 713.093750,456.200104 712.932983,454.624054 
	C712.666199,452.007477 712.859741,449.343903 712.859497,446.233490 
z"/>
</svg>